<svg width="153" height="33" viewBox="0 0 153 33" fill="none" xmlns="http://www.w3.org/2000/svg">
<path d="M12.56 26V23.36H15.92V26C15.92 28.144 15.264 29.808 13.952 30.992C12.64 32.144 10.672 32.72 8.048 32.72C5.424 32.72 3.44 32.144 2.096 30.992C0.752 29.808 0.08 28.144 0.08 26V6.8C0.08 4.656 0.736 3.008 2.048 1.856C3.36 0.671999 5.328 0.079999 7.952 0.079999C10.576 0.079999 12.56 0.671999 13.904 1.856C15.248 3.008 15.92 4.656 15.92 6.8V11.36H12.56V6.8C12.56 4.24 11.04 2.96 8 2.96C4.96 2.96 3.44 4.24 3.44 6.8V26C3.44 28.56 4.96 29.84 8 29.84C11.04 29.84 12.56 28.56 12.56 26ZM27.6913 32H24.3313V0.799998H27.6913V14.72H37.1473V0.799998H40.5073V32H37.1473V17.6H27.6913V32ZM64.9925 32H63.5525L62.3045 28.928C61.6325 30.08 60.7525 31.008 59.6645 31.712C58.5765 32.384 57.3765 32.72 56.0645 32.72C51.4565 32.72 49.1525 30.48 49.1525 26V21.2C49.1525 16.72 51.4565 14.48 56.0645 14.48H61.6325V6.608C61.6325 5.456 61.2645 4.56 60.5285 3.92C59.7925 3.28 58.7045 2.96 57.2645 2.96C54.4165 2.96 52.9925 4.176 52.9925 6.608V9.44H49.6325V6.8C49.6325 4.656 50.2565 3.008 51.5045 1.856C52.7845 0.671999 54.7045 0.079999 57.2645 0.079999C59.8245 0.079999 61.7445 0.671999 63.0245 1.856C64.3365 3.008 64.9925 4.656 64.9925 6.8V32ZM61.6325 17.36H56.0645C54.7205 17.36 53.7925 17.696 53.2805 18.368C52.7685 19.04 52.5125 19.984 52.5125 21.2V26C52.5125 27.216 52.7685 28.16 53.2805 28.832C53.7925 29.504 54.7205 29.84 56.0645 29.84C57.4085 29.84 58.6565 29.328 59.8085 28.304C60.9605 27.248 61.5685 26.208 61.6325 25.184V17.36ZM73.3925 0.799998H83.9525V3.68H76.7525V26.672C76.7525 27.568 76.9765 28.32 77.4245 28.928C77.9045 29.536 78.5605 29.84 79.3925 29.84C80.2565 29.84 80.9125 29.552 81.3605 28.976C81.8085 28.368 82.0325 27.6 82.0325 26.672V20.96H85.3925V26.48C85.3925 28.496 84.8485 30.048 83.7605 31.136C82.7045 32.192 81.2645 32.72 79.4405 32.72C77.6165 32.72 76.1445 32.192 75.0245 31.136C73.9365 30.048 73.3925 28.496 73.3925 26.48V0.799998Z" fill="#2B2B2B"/>
<path d="M96.2885 0.799998H101.329L108.385 32H105.025L103.393 24.8H94.2245L92.5925 32H89.2325L96.2885 0.799998ZM98.7845 4.544L94.8485 21.92H102.721L98.7845 4.544ZM118.489 32H115.129V0.799998H118.489V14.048L126.841 0.799998H130.585L122.089 14.24L131.161 32H127.465L120.073 17.456L118.489 20V32ZM136.445 26V0.799998H139.805V26C139.805 27.216 140.061 28.16 140.573 28.832C141.117 29.504 142.093 29.84 143.501 29.84C144.909 29.84 146.205 29.296 147.389 28.208C148.573 27.12 149.165 26.064 149.165 25.04V0.799998H152.525V32H151.085L149.837 28.928C149.133 30.08 148.221 31.008 147.101 31.712C146.013 32.384 144.813 32.72 143.501 32.72C138.797 32.72 136.445 30.48 136.445 26Z" fill="#356CB1"/>
</svg>
