<svg width="103" height="23" viewBox="0 0 103 23" fill="none" xmlns="http://www.w3.org/2000/svg">
<path d="M9.04 18V16.24H11.28V18C11.28 19.4293 10.8427 20.5387 9.968 21.328C9.09333 22.096 7.78133 22.48 6.032 22.48C4.28267 22.48 2.96 22.096 2.064 21.328C1.168 20.5387 0.72 19.4293 0.72 18V5.2C0.72 3.77067 1.15733 2.672 2.032 1.904C2.90667 1.11467 4.21867 0.719999 5.968 0.719999C7.71733 0.719999 9.04 1.11467 9.936 1.904C10.832 2.672 11.28 3.77067 11.28 5.2V8.24H9.04V5.2C9.04 3.49333 8.02667 2.64 6 2.64C3.97333 2.64 2.96 3.49333 2.96 5.2V18C2.96 19.7067 3.97333 20.56 6 20.56C8.02667 20.56 9.04 19.7067 9.04 18ZM19.1275 22H16.8875V1.2H19.1275V10.48H25.4315V1.2H27.6715V22H25.4315V12.4H19.1275V22ZM43.995 22H43.035L42.203 19.952C41.755 20.72 41.1683 21.3387 40.443 21.808C39.7177 22.256 38.9177 22.48 38.043 22.48C34.971 22.48 33.435 20.9867 33.435 18V14.8C33.435 11.8133 34.971 10.32 38.043 10.32H41.755V5.072C41.755 4.304 41.5097 3.70667 41.019 3.28C40.5283 2.85333 39.803 2.64 38.843 2.64C36.9443 2.64 35.995 3.45067 35.995 5.072V6.96H33.755V5.2C33.755 3.77067 34.171 2.672 35.003 1.904C35.8563 1.11467 37.1363 0.719999 38.843 0.719999C40.5497 0.719999 41.8297 1.11467 42.683 1.904C43.5577 2.672 43.995 3.77067 43.995 5.2V22ZM41.755 12.24H38.043C37.147 12.24 36.5283 12.464 36.187 12.912C35.8457 13.36 35.675 13.9893 35.675 14.8V18C35.675 18.8107 35.8457 19.44 36.187 19.888C36.5283 20.336 37.147 20.56 38.043 20.56C38.939 20.56 39.771 20.2187 40.539 19.536C41.307 18.832 41.7123 18.1387 41.755 17.456V12.24ZM49.595 1.2H56.635V3.12H51.835V18.448C51.835 19.0453 51.9843 19.5467 52.283 19.952C52.603 20.3573 53.0403 20.56 53.595 20.56C54.171 20.56 54.6083 20.368 54.907 19.984C55.2057 19.5787 55.355 19.0667 55.355 18.448V14.64H57.595V18.32C57.595 19.664 57.2323 20.6987 56.507 21.424C55.803 22.128 54.843 22.48 53.627 22.48C52.411 22.48 51.4297 22.128 50.683 21.424C49.9577 20.6987 49.595 19.664 49.595 18.32V1.2Z" fill="#2B2B2B"/>
<path d="M64.859 1.2H68.219L72.923 22H70.683L69.595 17.2H63.483L62.395 22H60.155L64.859 1.2ZM66.523 3.696L63.899 15.28H69.147L66.523 3.696ZM79.6595 22H77.4195V1.2H79.6595V10.032L85.2275 1.2H87.7235L82.0595 10.16L88.1075 22H85.6435L80.7155 12.304L79.6595 14V22ZM91.63 18V1.2H93.87V18C93.87 18.8107 94.0407 19.44 94.382 19.888C94.7447 20.336 95.3953 20.56 96.334 20.56C97.2727 20.56 98.1367 20.1973 98.926 19.472C99.7153 18.7467 100.11 18.0427 100.11 17.36V1.2H102.35V22H101.39L100.558 19.952C100.089 20.72 99.4807 21.3387 98.734 21.808C98.0087 22.256 97.2087 22.48 96.334 22.48C93.198 22.48 91.63 20.9867 91.63 18Z" fill="#FAFAFA"/>
</svg>
