<svg id="visual" viewBox="0 0 900 600" width="900" height="600" xmlns="http://www.w3.org/2000/svg" xmlns:xlink="http://www.w3.org/1999/xlink" version="1.1"><path d="M0 301L82 301L82 211L164 211L164 247L245 247L245 331L327 331L327 145L409 145L409 211L491 211L491 229L573 229L573 181L655 181L655 229L736 229L736 229L818 229L818 271L900 271L900 319L900 0L900 0L818 0L818 0L736 0L736 0L655 0L655 0L573 0L573 0L491 0L491 0L409 0L409 0L327 0L327 0L245 0L245 0L164 0L164 0L82 0L82 0L0 0Z" fill="#dfecf5"></path><path d="M0 463L82 463L82 301L164 301L164 337L245 337L245 457L327 457L327 313L409 313L409 361L491 361L491 403L573 403L573 367L655 367L655 331L736 331L736 415L818 415L818 373L900 373L900 433L900 317L900 269L818 269L818 227L736 227L736 227L655 227L655 179L573 179L573 227L491 227L491 209L409 209L409 143L327 143L327 329L245 329L245 245L164 245L164 209L82 209L82 299L0 299Z" fill="#85acd3"></path><path d="M0 601L82 601L82 601L164 601L164 601L245 601L245 601L327 601L327 601L409 601L409 601L491 601L491 601L573 601L573 601L655 601L655 601L736 601L736 601L818 601L818 601L900 601L900 601L900 431L900 371L818 371L818 413L736 413L736 329L655 329L655 365L573 365L573 401L491 401L491 359L409 359L409 311L327 311L327 455L245 455L245 335L164 335L164 299L82 299L82 461L0 461Z" fill="#356cb1"></path></svg>